<?xml version="1.0" encoding="UTF-8" standalone="no"?>
<svg
   xmlns:dc="http://purl.org/dc/elements/1.1/"
   xmlns:cc="http://creativecommons.org/ns#"
   xmlns:rdf="http://www.w3.org/1999/02/22-rdf-syntax-ns#"
   xmlns:svg="http://www.w3.org/2000/svg"
   xmlns="http://www.w3.org/2000/svg"
   xmlns:sodipodi="http://sodipodi.sourceforge.net/DTD/sodipodi-0.dtd"
   xmlns:inkscape="http://www.inkscape.org/namespaces/inkscape"
   viewBox="0 -256 1850 1850"
   id="svg3025"
   version="1.1"
   inkscape:version="0.48.3.1 r9886"
   width="100%"
   height="100%"
   sodipodi:docname="calendar_font_awesome.svg">
  <metadata
     id="metadata3035">
    <rdf:RDF>
      <cc:Work
         rdf:about="">
        <dc:format>image/svg+xml</dc:format>
        <dc:type
           rdf:resource="http://purl.org/dc/dcmitype/StillImage" />
      </cc:Work>
    </rdf:RDF>
  </metadata>
  <defs
     id="defs3033" />
  <sodipodi:namedview
     pagecolor="#ffffff"
     bordercolor="#666666"
     borderopacity="1"
     objecttolerance="10"
     gridtolerance="10"
     guidetolerance="10"
     inkscape:pageopacity="0"
     inkscape:pageshadow="2"
     inkscape:window-width="640"
     inkscape:window-height="480"
     id="namedview3031"
     showgrid="false"
     inkscape:zoom="0.13169643"
     inkscape:cx="896"
     inkscape:cy="896"
     inkscape:window-x="0"
     inkscape:window-y="25"
     inkscape:window-maximized="0"
     inkscape:current-layer="svg3025" />
  <g
     transform="matrix(1,0,0,-1,91.118644,1297.8644)"
     id="g3027">
    <path
       d="M 128,-128 H 416 V 160 H 128 v -288 z m 352,0 H 800 V 160 H 480 V -128 z M 128,224 H 416 V 544 H 128 V 224 z m 352,0 H 800 V 544 H 480 V 224 z M 128,608 H 416 V 896 H 128 V 608 z m 736,-736 h 320 V 160 H 864 V -128 z M 480,608 H 800 V 896 H 480 V 608 z m 768,-736 h 288 V 160 H 1248 V -128 z M 864,224 h 320 V 544 H 864 V 224 z m -352,864 v 288 q 0,13 -9.5,22.5 -9.5,9.5 -22.5,9.5 h -64 q -13,0 -22.5,-9.5 Q 384,1389 384,1376 v -288 q 0,-13 9.5,-22.5 9.5,-9.5 22.5,-9.5 h 64 q 13,0 22.5,9.5 9.5,9.5 9.5,22.5 z m 736,-864 h 288 V 544 H 1248 V 224 z M 864,608 h 320 V 896 H 864 V 608 z m 384,0 h 288 V 896 H 1248 V 608 z m 32,480 v 288 q 0,13 -9.5,22.5 -9.5,9.5 -22.5,9.5 h -64 q -13,0 -22.5,-9.5 -9.5,-9.5 -9.5,-22.5 v -288 q 0,-13 9.5,-22.5 9.5,-9.5 22.5,-9.5 h 64 q 13,0 22.5,9.5 9.5,9.5 9.5,22.5 z m 384,64 V -128 q 0,-52 -38,-90 -38,-38 -90,-38 H 128 q -52,0 -90,38 -38,38 -38,90 v 1280 q 0,52 38,90 38,38 90,38 h 128 v 96 q 0,66 47,113 47,47 113,47 h 64 q 66,0 113,-47 47,-47 47,-113 v -96 h 384 v 96 q 0,66 47,113 47,47 113,47 h 64 q 66,0 113,-47 47,-47 47,-113 v -96 h 128 q 52,0 90,-38 38,-38 38,-90 z"
       id="path3029"
       inkscape:connector-curvature="0"
       style="fill:currentColor" />
  </g>
</svg>
